<svg xmlns="http://www.w3.org/2000/svg" viewBox="0 0 64 64" width="64" height="64">

<defs>
  <linearGradient id="blue" x1="0" y1="0" x2="0" y2="1">
    <stop offset="0" stop-color="#67b7ff"/><stop offset="1" stop-color="#1267c9"/>
  </linearGradient>
  <linearGradient id="green" x1="0" y1="0" x2="0" y2="1">
    <stop offset="0" stop-color="#6fe07b"/><stop offset="1" stop-color="#159447"/>
  </linearGradient>
  <linearGradient id="orange" x1="0" y1="0" x2="0" y2="1">
    <stop offset="0" stop-color="#ffd166"/><stop offset="1" stop-color="#ef8b00"/>
  </linearGradient>
  <linearGradient id="red" x1="0" y1="0" x2="0" y2="1">
    <stop offset="0" stop-color="#ff6a55"/><stop offset="1" stop-color="#d52316"/>
  </linearGradient>
  <linearGradient id="gray" x1="0" y1="0" x2="0" y2="1">
    <stop offset="0" stop-color="#f7f9fb"/><stop offset="1" stop-color="#bfc8d3"/>
  </linearGradient>
  <linearGradient id="gold" x1="0" y1="0" x2="0" y2="1">
    <stop offset="0" stop-color="#ffe581"/><stop offset="1" stop-color="#e5a500"/>
  </linearGradient>
  <filter id="shadow" x="-20%" y="-20%" width="140%" height="140%">
    <feDropShadow dx="0" dy="1.5" stdDeviation="1.1" flood-color="#000" flood-opacity=".25"/>
  </filter>
</defs>

<rect x="11" y="8" width="35" height="46" rx="5" fill="#fff" stroke="#111" stroke-width="3"/><rect x="17" y="16" width="22" height="3" rx="1" fill="#a6d5fa" stroke="none" stroke-width="0"/><rect x="17" y="24" width="22" height="3" rx="1" fill="#a6d5fa" stroke="none" stroke-width="0"/><rect x="17" y="32" width="22" height="3" rx="1" fill="#a6d5fa" stroke="none" stroke-width="0"/><rect x="17" y="40" width="22" height="3" rx="1" fill="#a6d5fa" stroke="none" stroke-width="0"/><path d="M31 47 L49 29 L56 36 L38 54 L29 55 Z" fill="url(#blue)" stroke="#0b5ea8" stroke-width="2" stroke-linejoin="round" stroke-linecap="round"/><path d="M49 29 L53 25 L60 32 L56 36 Z" fill="url(#orange)" stroke="#d07000" stroke-width="1.5" stroke-linejoin="round" stroke-linecap="round"/>
</svg>